<svg width="34" height="34" viewBox="0 0 34 34" fill="none" xmlns="http://www.w3.org/2000/svg">
<g clip-path="url(#clip0_318_37)">
<path d="M26.9876 6.95575C24.3385 4.29242 20.811 2.83325 17.0568 2.83325C9.3218 2.83325 3.01763 9.13742 3.01763 16.8724C3.01763 19.3516 3.6693 21.7599 4.88763 23.8849L2.9043 31.1666L10.3418 29.2116C12.396 30.3308 14.7051 30.9258 17.0568 30.9258C24.7918 30.9258 31.096 24.6216 31.096 16.8866C31.096 13.1324 29.6368 9.60492 26.9876 6.95575ZM17.0568 28.5458C14.9601 28.5458 12.906 27.9791 11.1068 26.9166L10.6818 26.6616L6.2618 27.8233L7.43763 23.5166L7.1543 23.0774C5.99263 21.2216 5.3693 19.0683 5.3693 16.8724C5.3693 10.4408 10.611 5.19909 17.0426 5.19909C20.1593 5.19909 23.0918 6.41742 25.2876 8.62742C27.4976 10.8374 28.7018 13.7699 28.7018 16.8866C28.7301 23.3183 23.4885 28.5458 17.0568 28.5458ZM23.4601 19.8191C23.106 19.6491 21.3776 18.7991 21.066 18.6716C20.7401 18.5583 20.5135 18.5016 20.2726 18.8416C20.0318 19.1958 19.366 19.9891 19.1676 20.2158C18.9693 20.4566 18.7568 20.4849 18.4026 20.3008C18.0485 20.1308 16.9151 19.7483 15.5835 18.5583C14.5351 17.6233 13.841 16.4758 13.6285 16.1216C13.4301 15.7674 13.6001 15.5833 13.7843 15.3991C13.9401 15.2433 14.1385 14.9883 14.3085 14.7899C14.4785 14.5916 14.5493 14.4358 14.6626 14.2091C14.776 13.9683 14.7193 13.7699 14.6343 13.5999C14.5493 13.4299 13.841 11.7016 13.5576 10.9933C13.2743 10.3133 12.9768 10.3983 12.7643 10.3841C12.5518 10.3841 12.3251 10.3841 12.0843 10.3841C11.8435 10.3841 11.4751 10.4691 11.1493 10.8233C10.8376 11.1774 9.93096 12.0274 9.93096 13.7558C9.93096 15.4841 11.1918 17.1558 11.3618 17.3824C11.5318 17.6233 13.841 21.1649 17.3543 22.6808C18.1901 23.0491 18.8418 23.2616 19.3518 23.4174C20.1876 23.6866 20.9526 23.6441 21.5618 23.5591C22.2418 23.4599 23.6443 22.7091 23.9276 21.8874C24.2251 21.0658 24.2251 20.3716 24.126 20.2158C24.0268 20.0599 23.8143 19.9891 23.4601 19.8191Z" fill="black"/>
</g>
<defs>
<clipPath id="clip0_318_37">
<rect width="34" height="34" fill="white"/>
</clipPath>
</defs>
</svg>
