<svg width="34" height="34" viewBox="0 0 34 34" fill="none" xmlns="http://www.w3.org/2000/svg">
<path d="M28.3333 24.0321C26.8978 24.0321 25.6133 24.5442 24.6311 25.3464L11.1633 18.2631C11.2578 17.8705 11.3333 17.4779 11.3333 17.0683C11.3333 16.6586 11.2578 16.2661 11.1633 15.8735L24.48 8.85843C25.5 9.71185 26.8411 10.241 28.3333 10.241C31.4689 10.241 34 7.95382 34 5.12048C34 2.28715 31.4689 0 28.3333 0C25.1978 0 22.6667 2.28715 22.6667 5.12048C22.6667 5.53012 22.7422 5.92269 22.8367 6.31526L9.52 13.3303C8.5 12.4769 7.15889 11.9478 5.66667 11.9478C2.53111 11.9478 0 14.2349 0 17.0683C0 19.9016 2.53111 22.1888 5.66667 22.1888C7.15889 22.1888 8.5 21.6596 9.52 20.8062L22.9689 27.9066C22.8744 28.2651 22.8178 28.6406 22.8178 29.0161C22.8178 31.7641 25.2922 34 28.3333 34C31.3744 34 33.8489 31.7641 33.8489 29.0161C33.8489 26.2681 31.3744 24.0321 28.3333 24.0321Z" fill="black"/>
</svg>
